<mxfile host="app.diagrams.net" modified="2023-07-19T16:31:11.905Z" agent="Mozilla/5.0 (Windows NT 10.0; Win64; x64) AppleWebKit/537.36 (KHTML, like Gecko) Chrome/114.0.0.0 Safari/537.36 OPR/100.0.0.0" etag="TQkUkfmMaCdJjaJVqIvi" version="21.6.3" type="device">
  <diagram name="Page-1" id="WHyHv_-hZt8al2nkHKYX">
    <mxGraphModel dx="1161" dy="632" grid="1" gridSize="10" guides="1" tooltips="1" connect="1" arrows="1" fold="1" page="1" pageScale="1" pageWidth="850" pageHeight="1100" math="0" shadow="0">
      <root>
        <mxCell id="0" />
        <mxCell id="1" parent="0" />
        <mxCell id="1bbe0l63dU6gWnhPM9lm-4" style="edgeStyle=orthogonalEdgeStyle;rounded=0;orthogonalLoop=1;jettySize=auto;html=1;entryX=0.5;entryY=0;entryDx=0;entryDy=0;endArrow=none;endFill=0;" edge="1" parent="1" source="1bbe0l63dU6gWnhPM9lm-1" target="1bbe0l63dU6gWnhPM9lm-2">
          <mxGeometry relative="1" as="geometry">
            <Array as="points">
              <mxPoint x="425" y="270" />
              <mxPoint x="305" y="270" />
            </Array>
          </mxGeometry>
        </mxCell>
        <mxCell id="1bbe0l63dU6gWnhPM9lm-5" style="edgeStyle=orthogonalEdgeStyle;rounded=0;orthogonalLoop=1;jettySize=auto;html=1;entryX=0.5;entryY=0;entryDx=0;entryDy=0;endArrow=none;endFill=0;" edge="1" parent="1" source="1bbe0l63dU6gWnhPM9lm-1" target="1bbe0l63dU6gWnhPM9lm-3">
          <mxGeometry relative="1" as="geometry">
            <Array as="points">
              <mxPoint x="425" y="270" />
              <mxPoint x="590" y="270" />
            </Array>
          </mxGeometry>
        </mxCell>
        <mxCell id="1bbe0l63dU6gWnhPM9lm-1" value="Home" style="rounded=0;whiteSpace=wrap;html=1;fillColor=#d5e8d4;strokeColor=#82b366;" vertex="1" parent="1">
          <mxGeometry x="365" y="170" width="120" height="60" as="geometry" />
        </mxCell>
        <mxCell id="1bbe0l63dU6gWnhPM9lm-9" style="edgeStyle=orthogonalEdgeStyle;rounded=0;orthogonalLoop=1;jettySize=auto;html=1;entryX=0.5;entryY=0;entryDx=0;entryDy=0;endArrow=none;endFill=0;" edge="1" parent="1" source="1bbe0l63dU6gWnhPM9lm-2" target="1bbe0l63dU6gWnhPM9lm-6">
          <mxGeometry relative="1" as="geometry" />
        </mxCell>
        <mxCell id="1bbe0l63dU6gWnhPM9lm-10" style="edgeStyle=orthogonalEdgeStyle;rounded=0;orthogonalLoop=1;jettySize=auto;html=1;endArrow=none;endFill=0;" edge="1" parent="1" source="1bbe0l63dU6gWnhPM9lm-2" target="1bbe0l63dU6gWnhPM9lm-7">
          <mxGeometry relative="1" as="geometry" />
        </mxCell>
        <mxCell id="1bbe0l63dU6gWnhPM9lm-2" value="Shop (not logged in)" style="rounded=0;whiteSpace=wrap;html=1;fillColor=#e1d5e7;strokeColor=#9673a6;" vertex="1" parent="1">
          <mxGeometry x="245" y="300" width="120" height="60" as="geometry" />
        </mxCell>
        <mxCell id="1bbe0l63dU6gWnhPM9lm-13" style="edgeStyle=orthogonalEdgeStyle;rounded=0;orthogonalLoop=1;jettySize=auto;html=1;entryX=0;entryY=0.5;entryDx=0;entryDy=0;endArrow=none;endFill=0;" edge="1" parent="1" source="1bbe0l63dU6gWnhPM9lm-3" target="1bbe0l63dU6gWnhPM9lm-11">
          <mxGeometry relative="1" as="geometry" />
        </mxCell>
        <mxCell id="1bbe0l63dU6gWnhPM9lm-14" style="edgeStyle=orthogonalEdgeStyle;rounded=0;orthogonalLoop=1;jettySize=auto;html=1;entryX=0;entryY=0.5;entryDx=0;entryDy=0;endArrow=none;endFill=0;" edge="1" parent="1" source="1bbe0l63dU6gWnhPM9lm-3" target="1bbe0l63dU6gWnhPM9lm-12">
          <mxGeometry relative="1" as="geometry" />
        </mxCell>
        <mxCell id="1bbe0l63dU6gWnhPM9lm-3" value="API" style="rounded=0;whiteSpace=wrap;html=1;fillColor=#f8cecc;strokeColor=#b85450;" vertex="1" parent="1">
          <mxGeometry x="530" y="320" width="120" height="60" as="geometry" />
        </mxCell>
        <mxCell id="1bbe0l63dU6gWnhPM9lm-6" value="Shop (Admin)" style="rounded=0;whiteSpace=wrap;html=1;fillColor=#e1d5e7;strokeColor=#9673a6;" vertex="1" parent="1">
          <mxGeometry x="340" y="410" width="120" height="60" as="geometry" />
        </mxCell>
        <mxCell id="1bbe0l63dU6gWnhPM9lm-7" value="Shop (User)" style="rounded=0;whiteSpace=wrap;html=1;fillColor=#e1d5e7;strokeColor=#9673a6;" vertex="1" parent="1">
          <mxGeometry x="160" y="410" width="120" height="60" as="geometry" />
        </mxCell>
        <mxCell id="1bbe0l63dU6gWnhPM9lm-11" value="API 1" style="rounded=0;whiteSpace=wrap;html=1;fillColor=#f8cecc;strokeColor=#b85450;" vertex="1" parent="1">
          <mxGeometry x="630" y="410" width="120" height="60" as="geometry" />
        </mxCell>
        <mxCell id="1bbe0l63dU6gWnhPM9lm-12" value="API 2" style="rounded=0;whiteSpace=wrap;html=1;fillColor=#f8cecc;strokeColor=#b85450;" vertex="1" parent="1">
          <mxGeometry x="630" y="500" width="120" height="60" as="geometry" />
        </mxCell>
      </root>
    </mxGraphModel>
  </diagram>
</mxfile>
